# Blender 4.5.2 LTS
# www.blender.org
mtllib example_wall_model.mtl
o wall
v 0.500000 0.000000 -0.500000
v 0.500000 0.000000 0.500000
v -0.500000 1.000000 -0.500000
v -0.500000 0.000000 -0.500000
v -0.500000 1.000000 0.500000
v -0.500000 0.000000 0.500000
v 0.500000 0.125000 -0.500000
v 0.500000 0.125000 0.500000
v -0.375000 1.000000 0.500000
v -0.375000 1.000000 -0.500000
v -0.375000 0.125000 -0.500000
v -0.375000 0.125000 0.500000
vn -0.0000 -0.0000 -1.0000
vn 1.0000 -0.0000 -0.0000
vn -0.0000 -1.0000 -0.0000
vn -1.0000 -0.0000 -0.0000
vn -0.0000 -0.0000 1.0000
vn -0.0000 1.0000 -0.0000
vt 0.375000 0.333333
vt 0.458333 0.333333
vt 0.458333 0.416667
vt 0.375000 0.416667
vt 0.458333 0.250000
vt 0.541667 0.250000
vt 0.541667 0.333333
vt 0.375000 0.583333
vt 0.458333 0.583333
vt 0.458333 0.666667
vt 0.375000 0.666667
vt 0.208333 0.583333
vt 0.291667 0.583333
vt 0.291667 0.666667
vt 0.208333 0.666667
vt 0.458333 0.083333
vt 0.541667 0.083333
vt 0.541667 0.166667
vt 0.458333 0.166667
vt 0.458333 0.916667
vt 0.541667 0.916667
vt 0.541667 1.000000
vt 0.458333 1.000000
vt 0.375000 0.833333
vt 0.458333 0.833333
vt 0.375000 0.916667
vt 0.791667 0.583333
vt 0.875000 0.583333
vt 0.875000 0.666667
vt 0.791667 0.666667
vt 0.000000 0.000000
s 0
usemtl Material.001
f 4/1/1 11/2/1 7/3/1 1/4/1
f 4/5/1 3/6/1 10/7/1 11/2/1
f 1/8/2 7/9/2 8/10/2 2/11/2
f 4/12/3 1/13/3 2/14/3 6/15/3
f 6/16/4 5/17/4 3/18/4 4/19/4
f 12/20/5 9/21/5 5/22/5 6/23/5
f 2/24/5 8/25/5 12/20/5 6/26/5
f 10/27/6 3/28/6 5/29/6 9/30/6
f 11/2/2 10/27/2 9/30/2 12/31/2
f 7/3/6 11/2/6 12/31/6 8/10/6
